<svg xmlns="http://www.w3.org/2000/svg" width="511.999" height="439.762" viewBox="0 0 511.999 439.762">
  <g data-name="004-game-controller" transform="translate(-0.001 -0.5)">
    <path data-name="Path 1" d="M257.387,81.129c-24.328,0-45.113,10.469-54.238,27.313a7.5,7.5,0,1,0,13.184,7.145c6.406-11.82,22.52-19.461,41.055-19.461s34.652,7.641,41.059,19.461a7.5,7.5,0,1,0,13.184-7.145C302.5,91.6,281.719,81.129,257.387,81.129Zm0,0" fill="#009e74"/>
    <path data-name="Path 2" d="M333.906,90.473a7.5,7.5,0,1,0,13.184-7.145c-14.949-27.59-49.32-44.723-89.7-44.723s-74.75,17.137-89.7,44.723a7.5,7.5,0,1,0,13.184,7.145C193.2,67.73,222.515,53.6,257.387,53.6s64.2,14.125,76.52,36.871Zm0,0" fill="#009e74"/>
    <path data-name="Path 3" d="M133.117,73.816A7.5,7.5,0,0,0,143.285,70.8c18.5-34.113,62.223-55.3,114.105-55.3s95.6,21.191,114.105,55.3a7.5,7.5,0,1,0,13.18-7.148C363.55,24.7,314.776.5,257.39.5S151.23,24.7,130.1,63.652a7.5,7.5,0,0,0,3.016,10.164Zm0,0" fill="#009e74"/>
    <path data-name="Path 4" d="M401.383,229.211A19.516,19.516,0,1,0,381.867,209.7,19.523,19.523,0,0,0,401.383,229.211Zm0-24.035a4.509,4.509,0,0,1,4.492,4.52,4.506,4.506,0,1,1-4.492-4.52Zm0,0" fill="#009e74"/>
    <path data-name="Path 5" d="M401.383,251.859a19.518,19.518,0,1,0,19.488,19.519,19.543,19.543,0,0,0-19.488-19.519Zm0,24.039a4.522,4.522,0,1,1,4.492-4.52A4.525,4.525,0,0,1,401.383,275.9Zm0,0" fill="#009e74"/>
    <path data-name="Path 6" d="M390.031,240.535a19.516,19.516,0,1,0-19.516,19.52A19.539,19.539,0,0,0,390.031,240.535Zm-19.516,4.523a4.521,4.521,0,1,1,4.523-4.523A4.525,4.525,0,0,1,370.515,245.058Zm0,0" fill="#009e74"/>
    <path data-name="Path 7" d="M432.227,221.02a19.518,19.518,0,1,0,19.516,19.516,19.54,19.54,0,0,0-19.516-19.516Zm0,24.039a4.521,4.521,0,1,1,4.52-4.523A4.529,4.529,0,0,1,432.227,245.059Zm0,0" fill="#009e74"/>
    <path data-name="Path 8" d="M186.07,269.238A35.531,35.531,0,1,0,221.6,304.769,35.572,35.572,0,0,0,186.07,269.238Zm0,56.07a20.537,20.537,0,1,1,20.539-20.539A20.56,20.56,0,0,1,186.07,325.308Zm0,0" fill="#009e74"/>
    <path data-name="Path 9" d="M508.563,355.617,472.45,206.539c-5.2-21.441-15.512-37.785-30.664-48.578a69.983,69.983,0,0,0-9.914-5.887V149A28.319,28.319,0,0,0,403.6,120.7H386.79a28.333,28.333,0,0,0-28.3,28.3v4.332c-6.051,3.3-10.828,7.316-13.7,11.758h-72.32a7.5,7.5,0,1,0,0,15h69.574v15.32a15.355,15.355,0,0,1-15.32,15.352H185.278A15.368,15.368,0,0,1,169.93,195.41V180.09h67.9a7.5,7.5,0,0,0,0-15H167.184c-2.859-4.434-7.625-8.449-13.668-11.746V149a28.337,28.337,0,0,0-28.3-28.3H108.434A28.337,28.337,0,0,0,80.13,149v3.066a70.633,70.633,0,0,0-9.891,5.875c-15.164,10.789-25.488,27.141-30.687,48.594L3.438,355.613c-5.316,21.934-4.461,40.488,2.539,55.152,6.262,13.109,17.121,22.363,31.406,26.754,30.613,9.414,66.457-6.3,76.707-33.621l17.348-46.207c2.23-5.945,4-6.7,4.02-6.707.2-.047,1.563.129,4.141,2.012,24.293,22.059,64.078,21.105,90.277-1.754h52.246a72.411,72.411,0,0,0,43.7,17.719C343.489,369.91,360,364.242,372.4,353c2.906-2.125,4.121-2.023,4.133-2.012s1.781.758,4.027,6.7L397.88,403.9c8.234,21.922,32.934,36.367,58.184,36.363a63.065,63.065,0,0,0,18.566-2.746c14.281-4.395,25.137-13.648,31.395-26.762,7-14.66,7.855-33.211,2.539-55.137ZM386.786,135.7h16.809a13.3,13.3,0,0,1,13.059,10.93,83.811,83.811,0,0,0-19.512-2.332h-.309a88.776,88.776,0,0,0-23.246,3.086,13.327,13.327,0,0,1,13.2-11.684Zm-278.352,0h16.777a13.322,13.322,0,0,1,13.2,11.688,88.753,88.753,0,0,0-23.246-3.09h-.258a83.794,83.794,0,0,0-19.559,2.332,13.323,13.323,0,0,1,13.086-10.93ZM470.219,423.183c-20.762,6.391-50.109-2.754-58.3-24.555l-17.328-46.223c-3.367-8.914-7.91-14.086-13.887-15.82-5.477-1.594-11.395-.031-17.59,4.629-.2.148-.387.309-.566.473-19.293,17.742-51.754,16.23-72.355-3.371a7.494,7.494,0,0,0-5.168-2.066H226.973a7.494,7.494,0,0,0-5.168,2.066c-20.617,19.613-53.074,21.129-72.352,3.375a7.427,7.427,0,0,0-.574-.477c-6.2-4.668-12.129-6.223-17.617-4.625-5.984,1.742-10.52,6.922-13.863,15.832l-17.348,46.207c-8.176,21.8-37.5,30.945-58.262,24.563C18.543,416.038,9.875,392.7,18.008,359.148L54.121,210.074c6.523-26.918,21.008-39.867,35.426-45.891a7.33,7.33,0,0,0,1.719-.691,67.627,67.627,0,0,1,23.684-4.2,70.449,70.449,0,0,1,27.9,5.465c.121.055.242.113.371.164,6.41,2.855,10.586,6.258,11.707,8.855V195.41a30.38,30.38,0,0,0,30.344,30.344H326.719a30.366,30.366,0,0,0,30.316-30.344V173.777c1.109-2.566,5.2-5.922,11.461-8.758a7.555,7.555,0,0,0,1.059-.465,70.273,70.273,0,0,1,27.258-5.266h.27a67.589,67.589,0,0,1,23.656,4.211,7.469,7.469,0,0,0,1.7.68c14.422,6.02,28.914,18.969,35.438,45.891l36.113,149.078c8.137,33.543-.527,56.883-23.766,64.035Zm0,0" fill="#009e74"/>
    <path data-name="Path 10" d="M331.8,269.238a35.531,35.531,0,1,0,35.531,35.531A35.569,35.569,0,0,0,331.8,269.238Zm0,56.07a20.537,20.537,0,1,1,20.535-20.539A20.56,20.56,0,0,1,331.8,325.308Zm0,0" fill="#009e74"/>
    <path data-name="Path 11" d="M134.254,220.992h-2.281v-2.281a23,23,0,1,0-46.008,0v2.281H83.684a23,23,0,0,0,0,46.008h2.281v2.281a23,23,0,1,0,46.008,0V267h2.281a23,23,0,1,0,0-46.008Zm0,31.012h-9.777a7.5,7.5,0,0,0-7.5,7.5v9.781a8.006,8.006,0,1,1-16.012,0V259.5a7.5,7.5,0,0,0-7.5-7.5H83.688a8.008,8.008,0,0,1,0-16.016h9.777a7.5,7.5,0,0,0,7.5-7.5v-9.777a8.006,8.006,0,1,1,16.012,0v9.777a7.5,7.5,0,0,0,7.5,7.5h9.777a8.008,8.008,0,0,1,0,16.016Zm0,0" fill="#009e74"/>
    <path data-name="Path 12" d="M236.328,248.742H225.441a7.5,7.5,0,0,0,0,15h10.887a7.5,7.5,0,0,0,0-15Zm0,0" fill="#009e74"/>
    <path data-name="Path 13" d="M286.559,248.742H275.645a7.5,7.5,0,1,0,0,15h10.914a7.5,7.5,0,0,0,0-15Zm0,0" fill="#009e74"/>
    <path data-name="Path 14" d="M264.332,288.031H253.449a7.5,7.5,0,1,0,0,15h10.883a7.5,7.5,0,1,0,0-15Zm0,0" fill="#009e74"/>
  </g>
</svg>
