<svg xmlns="http://www.w3.org/2000/svg" width="512" height="503.472" viewBox="0 0 512 503.472">
  <g data-name="006-shirt" transform="translate(0 -4.263)">
    <g data-name="Group 1">
      <path data-name="Path 1" d="M508.666,125.5,405.483,46.127a59.528,59.528,0,0,0-20.008-10.083L337.267,22.269l-15.5-15.5A8.513,8.513,0,0,0,311,5.7a109.417,109.417,0,0,1-55,15.633A110.645,110.645,0,0,1,201,5.7a8.524,8.524,0,0,0-10.767,1.067l-15.5,15.5L126.525,36.044a59.519,59.519,0,0,0-20.008,10.083L3.333,125.5a8.536,8.536,0,0,0-1.9,11.5L69.7,239.4a8.516,8.516,0,0,0,5.792,3.7,8.61,8.61,0,0,0,6.642-1.766l28.8-23.042V499.2a8.529,8.529,0,0,0,8.533,8.533H392.534a8.529,8.529,0,0,0,8.533-8.533V218.294l28.8,23.042A8.538,8.538,0,0,0,442.3,239.4L510.568,137A8.54,8.54,0,0,0,508.666,125.5ZM384,490.669H128V473.6H384Zm49.266-268.475-16.31-13.051,42.411-63.607a8.533,8.533,0,0,0-14.2-9.467l-41.586,62.372-5.714-4.572A8.536,8.536,0,0,0,384,200.536v256H128v-256a8.536,8.536,0,0,0-13.867-6.666l-5.714,4.572L66.833,136.07a8.533,8.533,0,0,0-14.2,9.466l42.411,63.607L78.734,222.194,20.059,134.169l96.859-74.508a42.481,42.481,0,0,1,14.292-7.2l50.333-14.383a8.53,8.53,0,0,0,3.691-2.175l12.425-12.425A127.316,127.316,0,0,0,256,38.4a127.316,127.316,0,0,0,58.342-14.925L326.768,35.9a8.534,8.534,0,0,0,3.692,2.175l50.333,14.384a42.481,42.481,0,0,1,14.292,7.2l96.858,74.508Z" fill="#009e74"/>
    </g>
  </g>
</svg>
