<svg data-name="003-dish" xmlns="http://www.w3.org/2000/svg" width="480" height="480" viewBox="0 0 480 480">
  <g data-name="Group 2">
    <g data-name="Group 1">
      <path data-name="Path 1" d="M339.9,161.776l-5.136-16.9a36.72,36.72,0,0,0-69.536,0l-5.136,16.9a94.952,94.952,0,0,0-2.648,44,41.385,41.385,0,0,0,21.312,28.84L273.008,363.2a25.335,25.335,0,0,0,6.4,19.7,27.944,27.944,0,0,0,39.479,1.769q.924-.844,1.769-1.769a24.993,24.993,0,0,0,6.4-19.16L321.272,234.6a41.376,41.376,0,0,0,21.28-28.824A94.952,94.952,0,0,0,339.9,161.776Zm-13.112,41.216a25.366,25.366,0,0,1-16.6,19.112,8,8,0,0,0-5.176,7.848L311.1,365a9.254,9.254,0,0,1-2.4,7.248,12.359,12.359,0,0,1-17.392,0,9.6,9.6,0,0,1-2.352-7.776l6.032-134.52a8,8,0,0,0-5.176-7.848,25.366,25.366,0,0,1-16.6-19.112,78.891,78.891,0,0,1,2.2-36.528l5.136-16.912a20.744,20.744,0,0,1,38.912,0l5.136,16.912A79,79,0,0,1,326.792,202.992Z" fill="#009e74"/>
    </g>
  </g>
  <g data-name="Group 4">
    <g data-name="Group 3">
      <path data-name="Path 2" d="M216,120a8,8,0,0,0-8,8v68.688l-21.656,21.656A8,8,0,0,0,184,224.4l7,140a10.9,10.9,0,0,1-3.024,8.152,11.264,11.264,0,0,1-15.93.07l-.07-.07a10.894,10.894,0,0,1-3.024-8.152L176,224.4a8,8,0,0,0-2.336-6.056L152,196.688V128a8,8,0,0,0-16,0v72a8,8,0,0,0,2.344,5.656l21.488,21.5-6.824,136.472a27.024,27.024,0,1,0,53.984,2.63q.064-1.314,0-2.629l-6.824-136.472,21.488-21.5A8,8,0,0,0,224,200V128A8,8,0,0,0,216,120Z" fill="#009e74"/>
    </g>
  </g>
  <g data-name="Group 6">
    <g data-name="Group 5">
      <path data-name="Path 3" d="M168,120a8,8,0,0,0-8,8v64a8,8,0,0,0,16,0V128A8,8,0,0,0,168,120Z" fill="#009e74"/>
    </g>
  </g>
  <g data-name="Group 8">
    <g data-name="Group 7">
      <path data-name="Path 4" d="M192,120a8,8,0,0,0-8,8v64a8,8,0,0,0,16,0V128A8,8,0,0,0,192,120Z" fill="#009e74"/>
    </g>
  </g>
  <g data-name="Group 10">
    <g data-name="Group 9">
      <path data-name="Path 5" d="M240,0C107.452,0,0,107.452,0,240S107.452,480,240,480,480,372.548,480,240C479.85,107.514,372.486.15,240,0Zm0,464C116.288,464,16,363.712,16,240S116.288,16,240,16,464,116.288,464,240C463.859,363.653,363.653,463.859,240,464Z" fill="#009e74"/>
    </g>
  </g>
  <g data-name="Group 12">
    <g data-name="Group 11">
      <path data-name="Path 6" d="M265.969,390.172a8,8,0,0,0-8.74-7.185q-.154.015-.309.036l.032-.008a146.957,146.957,0,0,1-33.9,0,8,8,0,1,0-1.864,15.9,162.044,162.044,0,0,0,37.6,0A8,8,0,0,0,265.969,390.172Z" fill="#009e74"/>
    </g>
  </g>
  <g data-name="Group 14">
    <g data-name="Group 13">
      <path data-name="Path 7" d="M362.4,136.912a8,8,0,0,0-11.27-.988l-.034.028a8,8,0,0,0-.96,11.272A144,144,0,0,1,341.648,342a8,8,0,0,0,11.3,11.336A160,160,0,0,0,362.4,136.912Z" fill="#009e74"/>
    </g>
  </g>
  <g data-name="Group 17">
    <g data-name="Group 16">
      <g data-name="Group 15">
        <path data-name="Path 8" d="M186.392,105.744h0Z" fill="#009e74"/>
        <path data-name="Path 9" d="M277.736,84.472a161.416,161.416,0,0,0-94.168,5.784,7.992,7.992,0,1,0,5.608,14.968,145.334,145.334,0,0,1,84.8-5.2,8,8,0,1,0,3.76-15.552Z" fill="#009e74"/>
      </g>
    </g>
  </g>
  <g data-name="Group 19">
    <g data-name="Group 18">
      <path data-name="Path 10" d="M137.992,341.6a143.984,143.984,0,0,1-14.464-186.3,8,8,0,0,0-12.79-9.614c-.047.063-.093.126-.138.19a160,160,0,0,0,16.056,207.056A8.013,8.013,0,0,0,137.992,341.6Z" fill="#009e74"/>
    </g>
  </g>
</svg>
