<svg xmlns="http://www.w3.org/2000/svg" width="447.076" height="437.491" viewBox="0 0 447.076 437.491">
  <g data-name="005-video-camera" transform="translate(0 -4.793)">
    <g data-name="Group 2">
      <g data-name="Group 1">
        <path data-name="Path 1" d="M255.577,177.873l.039.01a54.592,54.592,0,0,0,29.972,8.99,55.022,55.022,0,1,0-30.011-9Zm-1.024-66.383a37.009,37.009,0,0,1,23.562-16.039,37.632,37.632,0,0,1,7.69-.8,37.263,37.263,0,1,1-31.242,16.866Z" fill="#009e74"/>
        <path data-name="Path 2" d="M129.338,161.1a40.369,40.369,0,1,0-61.626,42.031H67.7a40.1,40.1,0,0,0,22.036,6.607,40.793,40.793,0,0,0,8.34-.866A40.369,40.369,0,0,0,129.338,161.1Zm-62.163,8.185a22.649,22.649,0,0,1,3.688-12.342v-.01a22.518,22.518,0,0,1,14.326-9.767,22.645,22.645,0,1,1-18.014,22.119Z" fill="#009e74"/>
        <path data-name="Path 3" d="M442.654,252.527a8.862,8.862,0,0,0-8.862,0l-50.954,29.342V250.263a8.862,8.862,0,0,0-8.862-8.862H350.424A127.173,127.173,0,1,0,159.832,113.174,89.777,89.777,0,1,0,40.694,244.492q2.9,1.9,5.908,3.545a8.849,8.849,0,0,0-.305,2.255v36.1H21.858A8.862,8.862,0,0,0,13,295.25v43.717a8.862,8.862,0,0,0,8.862,8.862H46.247v85.593a8.862,8.862,0,0,0,8.862,8.862H373.977a8.862,8.862,0,0,0,8.862-8.862V384.467l50.954,29.341a8.862,8.862,0,0,0,13.283-7.68V260.2A8.866,8.866,0,0,0,442.654,252.527ZM46.247,330.1H30.72V304.11H46.247Zm130.019-200.49A109.488,109.488,0,1,1,308.1,239.076,110.751,110.751,0,0,1,287.33,241.4h-3.8A109.548,109.548,0,0,1,176.266,129.614Zm39.788,108.724c1.634,1.073,3.289,2.078,4.923,3.062H143.409a90.291,90.291,0,0,0,32.217-45.637h0A126.679,126.679,0,0,0,216.054,238.338Zm-165.7-8.684A72.044,72.044,0,0,1,29.524,129.92l0-.007a72.044,72.044,0,1,1,20.824,99.741Zm314.762,194.9H63.97V259.143H365.115Zm64.227-33.723-46.513-26.791V302.318l46.513-26.791Z" fill="#009e74"/>
        <path data-name="Path 4" d="M93.263,390.186H206.819a8.862,8.862,0,0,0,8.862-8.862V296.549a8.862,8.862,0,0,0-8.862-8.862H93.263a8.862,8.862,0,0,0-8.862,8.862v84.775A8.862,8.862,0,0,0,93.263,390.186ZM197.957,305.41v67.052h-95.8l-.03-67.052Z" fill="#009e74"/>
        <path data-name="Path 5" d="M321.6,378.675a8.862,8.862,0,0,0,8.862-8.862V302.278a8.862,8.862,0,0,0-17.724,0v67.535A8.862,8.862,0,0,0,321.6,378.675Z" fill="#009e74"/>
        <path data-name="Path 6" d="M289.388,378.675a8.862,8.862,0,0,0,8.862-8.862V302.278a8.862,8.862,0,1,0-17.724,0v67.535A8.862,8.862,0,0,0,289.388,378.675Z" fill="#009e74"/>
        <path data-name="Path 7" d="M257.172,378.675a8.862,8.862,0,0,0,8.862-8.862V302.278a8.862,8.862,0,0,0-17.724,0v67.535A8.862,8.862,0,0,0,257.172,378.675Z" fill="#009e74"/>
      </g>
    </g>
  </g>
</svg>
