<svg xmlns="http://www.w3.org/2000/svg" width="506.953" height="512" viewBox="0 0 506.953 512">
  <g transform="translate(-2.523 0)">
    <g>
      <path d="M504.477,282.482l-116.738-67.4V80.285a10,10,0,0,0-5-8.66L261,1.34a10,10,0,0,0-10,0L129.262,71.625a10,10,0,0,0-5,8.66v134.8L7.523,282.482a10,10,0,0,0-5,8.66V431.714a10,10,0,0,0,5,8.66L129.262,510.66a10,10,0,0,0,10,0L256,443.261l116.738,67.4a10,10,0,0,0,10,0l121.738-70.286a10,10,0,0,0,5-8.66V291.142a10,10,0,0,0-5-8.66Zm-126.738,67.4L276,291.143,377.74,232.4l101.738,58.738ZM134.262,232.4,236,291.143,134.262,349.882,32.523,291.142ZM246,156.344V273.821L144.262,215.083V97.606ZM144.262,367.2,246,308.463V425.941L144.262,484.68ZM256,21.547,357.738,80.286,350.965,84.2a10,10,0,1,0,10,17.32l6.773-3.911V215.084L266,273.822V156.344l16.818-9.71a10,10,0,1,0-10-17.32L256,139.024,154.262,80.285ZM22.523,308.463,124.262,367.2V484.68L22.523,425.941Zm243.477,0L367.738,367.2V484.68L266,425.941ZM387.739,484.679V367.2l101.738-58.739V425.941Z" fill="#009e74"/>
      <path d="M316.87,125.429a10,10,0,1,0-7.07-2.93A10.072,10.072,0,0,0,316.87,125.429Z" fill="#009e74"/>
    </g>
  </g>
</svg>
