<svg width="184" height="36" viewBox="0 0 184 36" fill="none" xmlns="http://www.w3.org/2000/svg">
<path d="M180.914 12.7437C181.538 12.7437 182.054 12.9477 182.462 13.3557C182.87 13.7637 183.074 14.2917 183.074 14.9397V30.1677C183.074 30.7917 182.87 31.3197 182.462 31.7517C182.054 32.1597 181.538 32.3637 180.914 32.3637C180.29 32.3637 179.774 32.1597 179.366 31.7517C178.958 31.3197 178.754 30.7917 178.754 30.1677V28.4037L179.546 28.7277C179.546 29.0397 179.378 29.4237 179.042 29.8797C178.706 30.3117 178.25 30.7437 177.674 31.1757C177.098 31.6077 176.414 31.9797 175.622 32.2917C174.854 32.5797 174.014 32.7237 173.102 32.7237C171.446 32.7237 169.946 32.3037 168.602 31.4637C167.258 30.5997 166.19 29.4237 165.398 27.9357C164.63 26.4237 164.246 24.6957 164.246 22.7517C164.246 20.7837 164.63 19.0557 165.398 17.5677C166.19 16.0557 167.246 14.8797 168.566 14.0397C169.886 13.1757 171.35 12.7437 172.958 12.7437C173.99 12.7437 174.938 12.8997 175.802 13.2117C176.666 13.5237 177.41 13.9197 178.034 14.3997C178.682 14.8797 179.174 15.3717 179.51 15.8757C179.87 16.3557 180.05 16.7637 180.05 17.0997L178.754 17.5677V14.9397C178.754 14.3157 178.958 13.7997 179.366 13.3917C179.774 12.9597 180.29 12.7437 180.914 12.7437ZM173.642 28.7637C174.698 28.7637 175.622 28.4997 176.414 27.9717C177.206 27.4437 177.818 26.7237 178.25 25.8117C178.706 24.8997 178.934 23.8797 178.934 22.7517C178.934 21.5997 178.706 20.5677 178.25 19.6557C177.818 18.7437 177.206 18.0237 176.414 17.4957C175.622 16.9677 174.698 16.7037 173.642 16.7037C172.61 16.7037 171.698 16.9677 170.906 17.4957C170.114 18.0237 169.49 18.7437 169.034 19.6557C168.602 20.5677 168.386 21.5997 168.386 22.7517C168.386 23.8797 168.602 24.8997 169.034 25.8117C169.49 26.7237 170.114 27.4437 170.906 27.9717C171.698 28.4997 172.61 28.7637 173.642 28.7637Z" fill="#252525"/>
<path d="M148.75 32.3636C148.126 32.3636 147.61 32.1596 147.202 31.7516C146.794 31.3196 146.59 30.7916 146.59 30.1676V7.91963C146.59 7.29563 146.794 6.77963 147.202 6.37163C147.61 5.93963 148.126 5.72363 148.75 5.72363C149.374 5.72363 149.89 5.93963 150.298 6.37163C150.706 6.77963 150.91 7.29563 150.91 7.91963V30.1676C150.91 30.7916 150.706 31.3196 150.298 31.7516C149.89 32.1596 149.374 32.3636 148.75 32.3636ZM160.198 13.1036C160.75 13.1036 161.23 13.3316 161.638 13.7876C162.046 14.2436 162.25 14.6876 162.25 15.1196C162.25 15.6956 161.962 16.2356 161.386 16.7396L150.55 26.7116L150.37 21.7436L158.614 13.7876C159.07 13.3316 159.598 13.1036 160.198 13.1036ZM160.738 32.3276C160.114 32.3276 159.586 32.0876 159.154 31.6076L152.494 24.5516L155.77 21.5276L162.25 28.5836C162.706 29.0636 162.934 29.6036 162.934 30.2036C162.934 30.8276 162.682 31.3436 162.178 31.7516C161.698 32.1356 161.218 32.3276 160.738 32.3276Z" fill="#252525"/>
<path d="M140.833 12.7437C141.457 12.7437 141.973 12.9477 142.381 13.3557C142.789 13.7637 142.993 14.2917 142.993 14.9397V30.1677C142.993 30.7917 142.789 31.3197 142.381 31.7517C141.973 32.1597 141.457 32.3637 140.833 32.3637C140.209 32.3637 139.693 32.1597 139.285 31.7517C138.877 31.3197 138.673 30.7917 138.673 30.1677V28.4037L139.465 28.7277C139.465 29.0397 139.297 29.4237 138.961 29.8797C138.625 30.3117 138.169 30.7437 137.593 31.1757C137.017 31.6077 136.333 31.9797 135.541 32.2917C134.773 32.5797 133.933 32.7237 133.021 32.7237C131.365 32.7237 129.865 32.3037 128.521 31.4637C127.177 30.5997 126.109 29.4237 125.317 27.9357C124.549 26.4237 124.165 24.6957 124.165 22.7517C124.165 20.7837 124.549 19.0557 125.317 17.5677C126.109 16.0557 127.165 14.8797 128.485 14.0397C129.805 13.1757 131.269 12.7437 132.877 12.7437C133.909 12.7437 134.857 12.8997 135.721 13.2117C136.585 13.5237 137.329 13.9197 137.953 14.3997C138.601 14.8797 139.093 15.3717 139.429 15.8757C139.789 16.3557 139.969 16.7637 139.969 17.0997L138.673 17.5677V14.9397C138.673 14.3157 138.877 13.7997 139.285 13.3917C139.693 12.9597 140.209 12.7437 140.833 12.7437ZM133.561 28.7637C134.617 28.7637 135.541 28.4997 136.333 27.9717C137.125 27.4437 137.737 26.7237 138.169 25.8117C138.625 24.8997 138.853 23.8797 138.853 22.7517C138.853 21.5997 138.625 20.5677 138.169 19.6557C137.737 18.7437 137.125 18.0237 136.333 17.4957C135.541 16.9677 134.617 16.7037 133.561 16.7037C132.529 16.7037 131.617 16.9677 130.825 17.4957C130.033 18.0237 129.409 18.7437 128.953 19.6557C128.521 20.5677 128.305 21.5997 128.305 22.7517C128.305 23.8797 128.521 24.8997 128.953 25.8117C129.409 26.7237 130.033 27.4437 130.825 27.9717C131.617 28.4997 132.529 28.7637 133.561 28.7637Z" fill="#252525"/>
<path d="M119.667 5.72363C120.291 5.72363 120.807 5.92763 121.215 6.33563C121.623 6.74363 121.827 7.27163 121.827 7.91963V30.1676C121.827 30.7916 121.623 31.3196 121.215 31.7516C120.807 32.1596 120.291 32.3636 119.667 32.3636C119.043 32.3636 118.527 32.1596 118.119 31.7516C117.711 31.3196 117.507 30.7916 117.507 30.1676V28.4036L118.299 28.7276C118.299 29.0396 118.131 29.4236 117.795 29.8796C117.459 30.3116 117.003 30.7436 116.427 31.1756C115.851 31.6076 115.167 31.9796 114.375 32.2916C113.607 32.5796 112.767 32.7236 111.855 32.7236C110.199 32.7236 108.699 32.3036 107.355 31.4636C106.011 30.5996 104.943 29.4236 104.151 27.9356C103.383 26.4236 102.999 24.6956 102.999 22.7516C102.999 20.7836 103.383 19.0556 104.151 17.5676C104.943 16.0556 105.999 14.8796 107.319 14.0396C108.639 13.1756 110.103 12.7436 111.711 12.7436C112.743 12.7436 113.691 12.8996 114.555 13.2116C115.419 13.5236 116.163 13.9196 116.787 14.3996C117.435 14.8796 117.927 15.3716 118.263 15.8756C118.623 16.3556 118.803 16.7636 118.803 17.0996L117.507 17.5676V7.91963C117.507 7.29563 117.711 6.77963 118.119 6.37163C118.527 5.93963 119.043 5.72363 119.667 5.72363ZM112.395 28.7636C113.451 28.7636 114.375 28.4996 115.167 27.9716C115.959 27.4436 116.571 26.7236 117.003 25.8116C117.459 24.8996 117.687 23.8796 117.687 22.7516C117.687 21.5996 117.459 20.5676 117.003 19.6556C116.571 18.7436 115.959 18.0236 115.167 17.4956C114.375 16.9676 113.451 16.7036 112.395 16.7036C111.363 16.7036 110.451 16.9676 109.659 17.4956C108.867 18.0236 108.243 18.7436 107.787 19.6556C107.355 20.5676 107.139 21.5996 107.139 22.7516C107.139 23.8796 107.355 24.8996 107.787 25.8116C108.243 26.7236 108.867 27.4436 109.659 27.9716C110.451 28.4996 111.363 28.7636 112.395 28.7636Z" fill="#252525"/>
<path d="M98.5017 12.7437C99.1257 12.7437 99.6417 12.9477 100.05 13.3557C100.458 13.7637 100.662 14.2917 100.662 14.9397V30.1677C100.662 30.7917 100.458 31.3197 100.05 31.7517C99.6417 32.1597 99.1257 32.3637 98.5017 32.3637C97.8777 32.3637 97.3617 32.1597 96.9537 31.7517C96.5457 31.3197 96.3417 30.7917 96.3417 30.1677V28.4037L97.1337 28.7277C97.1337 29.0397 96.9657 29.4237 96.6297 29.8797C96.2937 30.3117 95.8377 30.7437 95.2617 31.1757C94.6857 31.6077 94.0017 31.9797 93.2097 32.2917C92.4417 32.5797 91.6017 32.7237 90.6897 32.7237C89.0337 32.7237 87.5337 32.3037 86.1897 31.4637C84.8457 30.5997 83.7777 29.4237 82.9857 27.9357C82.2177 26.4237 81.8337 24.6957 81.8337 22.7517C81.8337 20.7837 82.2177 19.0557 82.9857 17.5677C83.7777 16.0557 84.8337 14.8797 86.1537 14.0397C87.4737 13.1757 88.9377 12.7437 90.5457 12.7437C91.5777 12.7437 92.5257 12.8997 93.3897 13.2117C94.2537 13.5237 94.9977 13.9197 95.6217 14.3997C96.2697 14.8797 96.7617 15.3717 97.0977 15.8757C97.4577 16.3557 97.6377 16.7637 97.6377 17.0997L96.3417 17.5677V14.9397C96.3417 14.3157 96.5457 13.7997 96.9537 13.3917C97.3617 12.9597 97.8777 12.7437 98.5017 12.7437ZM91.2297 28.7637C92.2857 28.7637 93.2097 28.4997 94.0017 27.9717C94.7937 27.4437 95.4057 26.7237 95.8377 25.8117C96.2937 24.8997 96.5217 23.8797 96.5217 22.7517C96.5217 21.5997 96.2937 20.5677 95.8377 19.6557C95.4057 18.7437 94.7937 18.0237 94.0017 17.4957C93.2097 16.9677 92.2857 16.7037 91.2297 16.7037C90.1977 16.7037 89.2857 16.9677 88.4937 17.4957C87.7017 18.0237 87.0777 18.7437 86.6217 19.6557C86.1897 20.5677 85.9737 21.5997 85.9737 22.7517C85.9737 23.8797 86.1897 24.8997 86.6217 25.8117C87.0777 26.7237 87.7017 27.4437 88.4937 27.9717C89.2857 28.4997 90.1977 28.7637 91.2297 28.7637Z" fill="#252525"/>
<path d="M71.1533 32.7237C69.4733 32.7237 67.9613 32.5197 66.6173 32.1117C65.2733 31.6797 63.9893 30.9357 62.7653 29.8797C62.4533 29.6157 62.2133 29.3157 62.0453 28.9797C61.8773 28.6437 61.7933 28.3077 61.7933 27.9717C61.7933 27.4197 61.9853 26.9397 62.3693 26.5317C62.7773 26.0997 63.2813 25.8837 63.8813 25.8837C64.3373 25.8837 64.7453 26.0277 65.1053 26.3157C66.0173 27.0597 66.9173 27.6237 67.8053 28.0077C68.7173 28.3917 69.8333 28.5837 71.1533 28.5837C72.0413 28.5837 72.8573 28.4517 73.6013 28.1877C74.3453 27.8997 74.9453 27.5277 75.4013 27.0717C75.8573 26.5917 76.0853 26.0517 76.0853 25.4517C76.0853 24.7317 75.8693 24.1197 75.4373 23.6157C75.0053 23.1117 74.3453 22.6917 73.4573 22.3556C72.5693 21.9957 71.4413 21.7197 70.0733 21.5276C68.7773 21.3357 67.6373 21.0477 66.6533 20.6637C65.6693 20.2557 64.8413 19.7517 64.1693 19.1517C63.5213 18.5277 63.0293 17.8077 62.6933 16.9917C62.3573 16.1517 62.1893 15.2157 62.1893 14.1837C62.1893 12.6237 62.5853 11.2916 63.3773 10.1876C64.1933 9.08365 65.2853 8.24365 66.6533 7.66765C68.0213 7.09165 69.5333 6.80365 71.1893 6.80365C72.7493 6.80365 74.1893 7.04365 75.5093 7.52365C76.8533 7.97965 77.9453 8.56765 78.7853 9.28765C79.4813 9.83965 79.8293 10.4757 79.8293 11.1957C79.8293 11.7236 79.6253 12.2036 79.2173 12.6356C78.8093 13.0676 78.3293 13.2837 77.7773 13.2837C77.4173 13.2837 77.0933 13.1757 76.8053 12.9597C76.4213 12.6237 75.9053 12.3117 75.2573 12.0237C74.6093 11.7117 73.9253 11.4597 73.2053 11.2677C72.4853 11.0517 71.8133 10.9437 71.1893 10.9437C70.1573 10.9437 69.2813 11.0756 68.5613 11.3396C67.8653 11.6037 67.3373 11.9637 66.9773 12.4197C66.6173 12.8757 66.4373 13.4037 66.4373 14.0036C66.4373 14.7237 66.6413 15.3237 67.0493 15.8037C67.4813 16.2597 68.0933 16.6317 68.8853 16.9197C69.6773 17.1837 70.6253 17.4237 71.7293 17.6397C73.1693 17.9037 74.4293 18.2157 75.5093 18.5757C76.6133 18.9357 77.5253 19.4037 78.2453 19.9797C78.9653 20.5317 79.5053 21.2397 79.8653 22.1037C80.2253 22.9437 80.4053 23.9757 80.4053 25.1996C80.4053 26.7597 79.9733 28.1037 79.1093 29.2317C78.2453 30.3597 77.1053 31.2237 75.6893 31.8237C74.2973 32.4237 72.7853 32.7237 71.1533 32.7237Z" fill="#252525"/>
<path d="M31.711 13.835C31.8114 13.3693 32.3134 13.0173 32.8996 13.0304C34.023 13.0523 35.8085 13.811 35.5508 16.135C35.3771 17.696 33.2496 21.8479 35.1437 23.457C37.0405 25.0661 40.921 23.0154 42.6169 21.533C44.8258 19.6003 52.4347 11.5131 45.2654 3.5243C44.8448 3.05643 44.8557 2.41802 45.3007 1.96327C45.8922 1.35984 46.9913 1.28988 47.6805 1.8146C49.8459 3.47183 53.6287 7.6499 51.8404 15.8158C49.6506 25.827 33.6567 33.9557 29.2172 35.8403C28.5605 36.1202 27.7546 36.024 27.2282 35.602C25.79 34.4455 23.3966 31.6273 25.1631 26.5047C27.4778 19.7971 30.7721 18.2361 31.711 13.835Z" fill="#F74F22"/>
<path d="M23.8226 2.03547C21.4048 0.752095 18.5175 0 15.4078 0C6.89795 0 0 5.59043 0 12.4839C0 12.9802 0.0461332 13.4677 0.116687 13.9509C0.263221 15.8312 0.887348 17.8295 2.08947 19.8912C1.36765 14.1739 7.32127 9.37277 14.344 9.37277C19.0576 9.37277 24.7561 11.8018 26.5009 17.7201C26.5796 17.589 27.2987 16.4455 27.8822 14.8823C29.2579 11.2858 29.9526 5.77408 23.8226 2.03547Z" fill="#F74F22"/>
<path d="M44.3319 4.19555C42.9072 2.24754 41.1434 1.04287 39.8599 0.489732C38.8911 0.0721447 38.0988 0.144293 37.6076 0.830798L37.5886 0.857036C37.2331 1.3577 37.7433 2.09012 38.267 2.49678C41.1298 4.72027 42.568 7.20393 43.6101 9.73351C43.6915 9.93465 43.6291 10.1555 43.4473 10.3085C43.0728 10.6321 42.4079 10.5162 42.2261 10.1008C41.5315 8.49824 40.4759 7.21924 39.2276 5.91619C37.3987 4.00534 35.4259 2.77663 33.9741 2.27377C33.0216 1.94364 32.0773 2.05733 31.6974 2.83129L31.6838 2.86189C31.4043 3.43034 31.7652 3.99222 32.3812 4.36609C36.2101 6.69889 38.6035 9.6395 40.1177 12.6195C40.1882 12.7594 40.1991 13.0983 40.0661 13.2076C39.8273 13.4022 39.461 13.3191 39.29 13.0851C38.2616 11.6706 37.6972 11.0781 36.6578 10.0352C34.951 8.3277 34.0474 7.87732 32.5576 7.25422C31.9226 6.98749 31.0706 7.07057 30.6174 7.545C30.0638 8.13093 30.3379 8.81525 31.1601 9.32904C38.0743 13.647 39.4338 18.481 38.7772 22.4841C38.7853 22.4339 39.1815 22.2743 39.233 22.2458C39.6509 22.0141 40.0471 21.7583 40.4297 21.4916C41.7105 20.5973 42.7878 19.5261 43.724 18.3913C44.606 17.3222 45.4119 16.1679 45.9003 14.9282C46.4295 13.5793 46.5977 12.1341 46.5597 10.7239C46.5543 10.5424 46.5462 10.361 46.5326 10.1795C46.3942 8.08065 45.6561 6.00583 44.3319 4.19555Z" fill="#F74F22"/>
<path d="M23.2148 27.4733C23.3858 26.7474 22.995 26.0128 22.2108 25.6302C21.2638 25.1711 20.2787 24.6682 19.679 24.3119C17.4539 22.9957 15.4621 21.4543 14.1514 20.0026C12.2166 17.86 10.5831 14.9653 11.2235 12.298C11.4216 11.4738 11.8612 10.7129 12.4636 10.0352C13.2342 9.1672 14.2708 8.4326 15.4132 7.86197V0.0633545C7.00383 0.157366 0.219849 5.70625 0.219849 12.5429C0.219849 13.0392 0.265982 13.5267 0.336535 14.0099C0.56719 16.944 1.72047 20.2387 4.66471 23.5467C6.9387 26.1025 10.6238 28.737 14.4798 31.0523C18.0102 33.173 21.877 34.9593 25.4861 35.9999C23.9339 34.5198 22.1891 31.7935 23.2148 27.4733Z" fill="#F74F22"/>
</svg>
