<svg xmlns="http://www.w3.org/2000/svg" version="1.1" xmlns:xlink="http://www.w3.org/1999/xlink" xmlns:svgjs="http://svgjs.dev/svgjs" width="1500" height="268" viewBox="0 0 1500 268"><g transform="matrix(1,0,0,1,-0.9090909090907644,-0.66608828273732)"><svg viewBox="0 0 396 71" data-background-color="#ffffff" preserveAspectRatio="xMidYMid meet" height="268" width="1500" xmlns="http://www.w3.org/2000/svg" xmlns:xlink="http://www.w3.org/1999/xlink"><g id="tight-bounds" transform="matrix(1,0,0,1,0.23999999999995225,0.1764636868445848)"><svg viewBox="0 0 395.52 70.64707262631082" height="70.64707262631082" width="395.52"><g><svg viewBox="0 0 492.9772411559171 88.05471015134613" height="70.64707262631082" width="395.52"><g><rect width="3.448552110547591" height="76.45850374935988" x="84.98106571932875" y="5.7981032009931255" fill="#332885" opacity="1" stroke-width="0" stroke="transparent" fill-opacity="1" class="rect-qz-0" data-fill-palette-color="primary" rx="1%" id="qz-0" data-palette-color="#332885"></rect></g><g transform="matrix(1,0,0,1,97.45724115591716,12.16964518010645)"><svg viewBox="0 0 395.52 63.71541979113323" height="63.71541979113323" width="395.52"><g id="textblocktransform"><svg viewBox="0 0 395.52 63.71541979113323" height="63.71541979113323" width="395.52" id="textblock"><g><svg viewBox="0 0 395.52 38.240326530612236" height="38.240326530612236" width="395.52"><g transform="matrix(1,0,0,1,0,0)"><svg width="395.52" viewBox="4.6 -37.5 391.96 37.9" height="38.240326530612236" data-palette-color="#332885"><path d="M4.6 0L4.6-35 10.5-35 10.5-5.05 25.65-5.05 25.65 0 4.6 0ZM31.3 0L31.3-35 37.2-35 37.2 0 31.3 0ZM46.4 0L46.4-35 69.9-35 69.84-29.95 52.3-29.95 52.3-19.55 68.2-19.55 68.2-14.55 52.3-14.55 52.3 0 46.4 0ZM75.14 0L75.14-35 100.14-35 100.14-29.95 81.04-29.95 81.04-20.1 98.14-20.1 98.14-15.1 81.04-15.1 81.04-5.05 100.74-5.05 100.74 0 75.14 0ZM106.39-13.3L106.39-17.1 118.69-17.1 118.69-13.3 106.39-13.3ZM126.34 0L126.34-35 133.19-35 145.29-11.25 157.29-35 164.14-35 164.14 0 158.69 0 158.64-26.75 147.14-3.65 143.39-3.65 131.79-26.75 131.79 0 126.34 0ZM168.79 0L184.24-35 190.29-35 205.59 0 199.29 0 187.09-29.05 174.94 0 168.79 0ZM176.49-8.1L176.49-13.1 197.44-13.1 197.44-8.1 176.49-8.1ZM239.03-29.95L235.58-25.9Q233.68-28 231.08-29.2 228.48-30.4 225.83-30.4L225.83-30.4Q223.23-30.4 220.96-29.43 218.68-28.45 216.96-26.7 215.23-24.95 214.28-22.63 213.33-20.3 213.33-17.6L213.33-17.6Q213.33-14.95 214.28-12.63 215.23-10.3 216.96-8.55 218.68-6.8 220.96-5.8 223.23-4.8 225.83-4.8L225.83-4.8Q228.48-4.8 231.03-5.93 233.58-7.05 235.58-9L235.58-9 239.08-5.35Q237.33-3.6 235.11-2.3 232.88-1 230.46-0.3 228.03 0.4 225.53 0.4L225.53 0.4Q221.68 0.4 218.38-0.98 215.08-2.35 212.61-4.8 210.13-7.25 208.73-10.53 207.33-13.8 207.33-17.55L207.33-17.55Q207.33-21.3 208.73-24.53 210.13-27.75 212.66-30.2 215.18-32.65 218.51-34 221.83-35.35 225.73-35.35L225.73-35.35Q228.23-35.35 230.63-34.7 233.03-34.05 235.18-32.85 237.33-31.65 239.03-29.95L239.03-29.95ZM254.03 0L269.48-35 275.53-35 290.83 0 284.53 0 272.33-29.05 260.18 0 254.03 0ZM261.73-8.1L261.73-13.1 282.68-13.1 282.68-8.1 261.73-8.1ZM296.23 0L296.23-28.2Q296.23-31.35 297.55-33.38 298.88-35.4 300.98-36.38 303.07-37.35 305.38-37.35L305.38-37.35Q306.57-37.35 307.8-37.02 309.02-36.7 310.07-36.15L310.07-36.15 308.88-31.75Q308.18-32.05 307.3-32.33 306.43-32.6 305.52-32.6L305.52-32.6Q304.57-32.6 303.75-32.23 302.93-31.85 302.43-31.03 301.93-30.2 301.93-28.9L301.93-28.9 301.93 0 296.23 0ZM292.73-21.5L292.73-25.6 308.88-25.6 308.88-21.5 292.73-21.5ZM327.82-26.75L327.82-21.55Q324.97-21.7 322.9-20.58 320.82-19.45 319.7-17.45 318.57-15.45 318.57-12.85L318.57-12.85 316.97-13.05Q316.97-17.5 318.27-20.55 319.57-23.6 322.02-25.18 324.47-26.75 327.82-26.75L327.82-26.75ZM312.87 0L312.87-26.55 318.62-26.55 318.62 0 312.87 0ZM332.57 0L332.57-26.55 338.27-26.55 338.27 0 332.57 0ZM335.42-37.5L335.42-37.5Q336.87-37.5 337.82-36.55 338.77-35.6 338.77-34.15L338.77-34.15Q338.77-32.75 337.82-31.78 336.87-30.8 335.42-30.8L335.42-30.8Q334.02-30.8 333.05-31.78 332.07-32.75 332.07-34.15L332.07-34.15Q332.07-35.6 333.05-36.55 334.02-37.5 335.42-37.5ZM368.67-22.65L365.52-18.95Q364.12-20.4 362.22-21.2 360.32-22 357.92-22L357.92-22Q355.62-22 353.82-20.9 352.02-19.8 351.02-17.82 350.02-15.85 350.02-13.25L350.02-13.25Q350.02-10.65 351.02-8.68 352.02-6.7 353.82-5.58 355.62-4.45 357.92-4.45L357.92-4.45Q360.42-4.45 362.42-5.28 364.42-6.1 365.77-7.7L365.77-7.7 368.97-4.55Q367.17-2.3 364.29-1.05 361.42 0.2 357.67 0.2L357.67 0.2Q353.72 0.2 350.69-1.5 347.67-3.2 345.97-6.23 344.27-9.25 344.27-13.25L344.27-13.25Q344.27-17.25 345.97-20.28 347.67-23.3 350.69-25.03 353.72-26.75 357.67-26.75L357.67-26.75Q361.27-26.75 364.04-25.68 366.82-24.6 368.67-22.65L368.67-22.65ZM391.61-11.85L383.66-11.85Q380.86-11.85 379.51-11 378.16-10.15 378.16-8.2L378.16-8.2Q378.16-6.35 379.54-5.25 380.91-4.15 383.31-4.15L383.31-4.15Q385.46-4.15 387.16-4.9 388.86-5.65 389.86-6.93 390.86-8.2 390.91-9.8L390.91-9.8 392.01-4.95Q390.76-2.35 388.21-1.05 385.66 0.25 382.11 0.25L382.11 0.25Q379.26 0.25 377.16-0.85 375.06-1.95 373.91-3.83 372.76-5.7 372.76-8L372.76-8Q372.76-11.6 375.39-13.75 378.01-15.9 382.81-15.95L382.81-15.95 391.61-15.95 391.61-11.85ZM390.91 0L390.86-16.85Q390.86-19.45 389.26-20.9 387.66-22.35 384.51-22.35L384.51-22.35Q382.61-22.35 380.64-21.65 378.66-20.95 376.66-19.6L376.66-19.6 374.31-23.3Q376.16-24.45 377.81-25.2 379.46-25.95 381.34-26.35 383.21-26.75 385.76-26.75L385.76-26.75Q390.91-26.75 393.69-24.28 396.46-21.8 396.51-17.45L396.51-17.45 396.56 0 390.91 0Z" opacity="1" transform="matrix(1,0,0,1,0,0)" fill="#332885" class="wordmark-text-0" data-fill-palette-color="primary" id="text-0"></path></svg></g></svg></g><g transform="matrix(1,0,0,1,0,47.26794985665305)"><svg viewBox="0 0 232.20979200000002 16.447469934480182" height="16.447469934480182" width="232.20979200000002"><g transform="matrix(1,0,0,1,0,0)"><svg width="232.20979200000002" viewBox="4.6 -37.5 668.4499999999999 47.35" height="16.447469934480182" data-palette-color="#332885"><path d="M4.6 0L4.6-35 29.6-35 29.6-29.95 10.5-29.95 10.5-20.1 27.6-20.1 27.6-15.1 10.5-15.1 10.5-5.05 30.2-5.05 30.2 0 4.6 0ZM56.4 0L56.4-15Q56.4-18.15 54.75-19.93 53.1-21.7 50.15-21.7L50.15-21.7Q46.7-21.6 44.72-19.15 42.75-16.7 42.75-13.1L42.75-13.1 41.15-13.1Q41.15-18 42.52-21 43.9-24 46.42-25.38 48.95-26.75 52.4-26.75L52.4-26.75Q55.45-26.75 57.62-25.5 59.8-24.25 60.97-21.98 62.15-19.7 62.15-16.5L62.15-16.5 62.15 0 56.4 0ZM75.75 0L75.75-15Q75.75-18.15 74.07-19.93 72.4-21.7 69.45-21.7L69.45-21.7Q66.05-21.6 64.1-19.15 62.15-16.7 62.15-13.1L62.15-13.1 60.5-13.1Q60.5-18 61.87-21 63.25-24 65.77-25.38 68.3-26.75 71.75-26.75L71.75-26.75Q74.8-26.75 76.97-25.5 79.15-24.25 80.32-21.98 81.5-19.7 81.5-16.5L81.5-16.5 81.5 0 75.75 0ZM37.05 0L37.05-26.55 42.75-26.55 42.75 0 37.05 0ZM104.5-26.75L104.5-26.75Q108.3-26.75 111.15-25.05 114-23.35 115.6-20.3 117.2-17.25 117.2-13.2L117.2-13.2Q117.2-9.25 115.62-6.23 114.05-3.2 111.22-1.5 108.4 0.2 104.6 0.2L104.6 0.2Q100.95 0.2 98.37-1.4 95.8-3 94.45-6.03 93.1-9.05 93.1-13.2L93.1-13.2Q93.1-17.5 94.45-20.53 95.8-23.55 98.37-25.15 100.95-26.75 104.5-26.75ZM103.3-22.2L103.3-22.2Q100.95-22.2 99.1-21.05 97.25-19.9 96.22-17.93 95.2-15.95 95.2-13.35L95.2-13.35Q95.2-10.75 96.22-8.72 97.25-6.7 99.1-5.58 100.95-4.45 103.3-4.45L103.3-4.45Q105.7-4.45 107.52-5.6 109.35-6.75 110.37-8.75 111.4-10.75 111.4-13.35L111.4-13.35Q111.4-15.9 110.37-17.9 109.35-19.9 107.52-21.05 105.7-22.2 103.3-22.2ZM89.45 9.7L89.45-26.55 95.2-26.55 95.2 9.7 89.45 9.7ZM134.59-26.75L134.59-26.75Q138.69-26.75 141.82-25.05 144.94-23.35 146.69-20.33 148.44-17.3 148.44-13.3L148.44-13.3Q148.44-9.3 146.69-6.25 144.94-3.2 141.82-1.5 138.69 0.2 134.59 0.2L134.59 0.2Q130.49 0.2 127.34-1.5 124.19-3.2 122.44-6.25 120.69-9.3 120.69-13.3L120.69-13.3Q120.69-17.3 122.44-20.33 124.19-23.35 127.34-25.05 130.49-26.75 134.59-26.75ZM134.59-22.1L134.59-22.1Q132.19-22.1 130.34-20.98 128.49-19.85 127.47-17.85 126.44-15.85 126.44-13.25L126.44-13.25Q126.44-10.6 127.47-8.6 128.49-6.6 130.34-5.48 132.19-4.35 134.59-4.35L134.59-4.35Q136.99-4.35 138.82-5.48 140.64-6.6 141.67-8.6 142.69-10.6 142.69-13.25L142.69-13.25Q142.69-15.85 141.67-17.85 140.64-19.85 138.82-20.98 136.99-22.1 134.59-22.1ZM160.04 0L150.24-26.55 156.14-26.55 163.04-5.3 169.74-26.55 175.69-26.55 182.44-5.3 189.24-26.55 195.09-26.55 185.39 0 179.44 0 172.69-20.1 165.94 0 160.04 0ZM201.24-15.2L217.49-15.2Q217.39-17.45 216.46-19.03 215.54-20.6 213.89-21.48 212.24-22.35 210.09-22.35L210.09-22.35Q207.69-22.35 205.91-21.25 204.14-20.15 203.14-18.18 202.14-16.2 202.14-13.55L202.14-13.55Q202.14-10.7 203.21-8.6 204.29-6.5 206.21-5.35 208.14-4.2 210.64-4.2L210.64-4.2Q215.09-4.2 218.14-7.35L218.14-7.35 221.19-4.3Q219.24-2.15 216.44-0.98 213.64 0.2 210.19 0.2L210.19 0.2Q206.09 0.2 203.04-1.5 199.99-3.2 198.29-6.23 196.59-9.25 196.59-13.25L196.59-13.25Q196.59-17.25 198.29-20.28 199.99-23.3 203.04-25 206.09-26.7 210.04-26.75L210.04-26.75Q214.74-26.75 217.59-24.83 220.44-22.9 221.64-19.4 222.84-15.9 222.49-11.1L222.49-11.1 201.24-11.1 201.24-15.2ZM243.44-26.75L243.44-21.55Q240.59-21.7 238.51-20.58 236.44-19.45 235.31-17.45 234.19-15.45 234.19-12.85L234.19-12.85 232.59-13.05Q232.59-17.5 233.89-20.55 235.19-23.6 237.64-25.18 240.09-26.75 243.44-26.75L243.44-26.75ZM228.49 0L228.49-26.55 234.24-26.55 234.24 0 228.49 0ZM248.18 0L248.18-26.55 253.88-26.55 253.88 0 248.18 0ZM251.03-37.5L251.03-37.5Q252.48-37.5 253.43-36.55 254.38-35.6 254.38-34.15L254.38-34.15Q254.38-32.75 253.43-31.78 252.48-30.8 251.03-30.8L251.03-30.8Q249.63-30.8 248.66-31.78 247.68-32.75 247.68-34.15L247.68-34.15Q247.68-35.6 248.66-36.55 249.63-37.5 251.03-37.5ZM282.08 0L282.08-15Q282.08-18.1 280.38-19.88 278.68-21.65 275.68-21.65L275.68-21.65Q272.13-21.6 270.11-19.15 268.08-16.7 268.08-13.05L268.08-13.05 266.48-13.05Q266.48-18 267.88-21 269.28-24 271.86-25.38 274.43-26.75 277.93-26.75L277.93-26.75Q281.03-26.75 283.26-25.5 285.48-24.25 286.66-21.98 287.83-19.7 287.83-16.5L287.83-16.5 287.83 0 282.08 0ZM262.38 0L262.38-26.55 268.13-26.55 268.13 0 262.38 0ZM319.53-26.55L319.53-2.65Q319.53 1.2 317.83 4 316.13 6.8 313.03 8.33 309.93 9.85 305.73 9.85L305.73 9.85Q302.63 9.85 299.88 8.93 297.13 8 294.68 6.35L294.68 6.35 297.13 2.4Q299.03 3.8 301.03 4.58 303.03 5.35 305.48 5.35L305.48 5.35Q308.03 5.35 309.9 4.38 311.78 3.4 312.8 1.65 313.83-0.1 313.83-2.5L313.83-2.5 313.83-26.55 319.53-26.55ZM304.83-26.75L304.83-26.75Q308.33-26.8 310.8-25.28 313.28-23.75 314.58-20.9 315.88-18.05 315.83-14.05L315.83-14.05Q315.88-10.05 314.6-7.18 313.33-4.3 310.9-2.78 308.48-1.25 305.03-1.25L305.03-1.25Q301.43-1.25 298.73-2.88 296.03-4.5 294.53-7.4 293.03-10.3 293.03-14.1L293.03-14.1Q293.03-17.85 294.5-20.68 295.98-23.5 298.65-25.13 301.33-26.75 304.83-26.75ZM306.18-22.35L306.18-22.35Q303.93-22.35 302.18-21.28 300.43-20.2 299.45-18.3 298.48-16.4 298.43-13.95L298.43-13.95Q298.48-11.5 299.45-9.6 300.43-7.7 302.15-6.63 303.88-5.55 306.18-5.55L306.18-5.55Q308.43-5.55 310.15-6.63 311.88-7.7 312.85-9.6 313.83-11.5 313.83-13.95L313.83-13.95Q313.83-16.45 312.85-18.32 311.88-20.2 310.15-21.28 308.43-22.35 306.18-22.35ZM370.17-29.95L366.72-25.9Q364.82-28 362.22-29.2 359.62-30.4 356.97-30.4L356.97-30.4Q354.37-30.4 352.1-29.43 349.82-28.45 348.1-26.7 346.37-24.95 345.42-22.63 344.47-20.3 344.47-17.6L344.47-17.6Q344.47-14.95 345.42-12.63 346.37-10.3 348.1-8.55 349.82-6.8 352.1-5.8 354.37-4.8 356.97-4.8L356.97-4.8Q359.62-4.8 362.17-5.93 364.72-7.05 366.72-9L366.72-9 370.22-5.35Q368.47-3.6 366.25-2.3 364.02-1 361.6-0.3 359.17 0.4 356.67 0.4L356.67 0.4Q352.82 0.4 349.52-0.98 346.22-2.35 343.75-4.8 341.27-7.25 339.87-10.53 338.47-13.8 338.47-17.55L338.47-17.55Q338.47-21.3 339.87-24.53 341.27-27.75 343.8-30.2 346.32-32.65 349.65-34 352.97-35.35 356.87-35.35L356.87-35.35Q359.37-35.35 361.77-34.7 364.17-34.05 366.32-32.85 368.47-31.65 370.17-29.95L370.17-29.95ZM387.27-26.75L387.27-26.75Q391.37-26.75 394.5-25.05 397.62-23.35 399.37-20.33 401.12-17.3 401.12-13.3L401.12-13.3Q401.12-9.3 399.37-6.25 397.62-3.2 394.5-1.5 391.37 0.2 387.27 0.2L387.27 0.2Q383.17 0.2 380.02-1.5 376.87-3.2 375.12-6.25 373.37-9.3 373.37-13.3L373.37-13.3Q373.37-17.3 375.12-20.33 376.87-23.35 380.02-25.05 383.17-26.75 387.27-26.75ZM387.27-22.1L387.27-22.1Q384.87-22.1 383.02-20.98 381.17-19.85 380.15-17.85 379.12-15.85 379.12-13.25L379.12-13.25Q379.12-10.6 380.15-8.6 381.17-6.6 383.02-5.48 384.87-4.35 387.27-4.35L387.27-4.35Q389.67-4.35 391.5-5.48 393.32-6.6 394.35-8.6 395.37-10.6 395.37-13.25L395.37-13.25Q395.37-15.85 394.35-17.85 393.32-19.85 391.5-20.98 389.67-22.1 387.27-22.1ZM426.47 0L426.47-15Q426.47-18.15 424.82-19.93 423.17-21.7 420.22-21.7L420.22-21.7Q416.77-21.6 414.79-19.15 412.82-16.7 412.82-13.1L412.82-13.1 411.22-13.1Q411.22-18 412.59-21 413.97-24 416.49-25.38 419.02-26.75 422.47-26.75L422.47-26.75Q425.52-26.75 427.69-25.5 429.87-24.25 431.04-21.98 432.22-19.7 432.22-16.5L432.22-16.5 432.22 0 426.47 0ZM445.82 0L445.82-15Q445.82-18.15 444.14-19.93 442.47-21.7 439.52-21.7L439.52-21.7Q436.12-21.6 434.17-19.15 432.22-16.7 432.22-13.1L432.22-13.1 430.57-13.1Q430.57-18 431.94-21 433.32-24 435.84-25.38 438.37-26.75 441.82-26.75L441.82-26.75Q444.87-26.75 447.04-25.5 449.22-24.25 450.39-21.98 451.57-19.7 451.57-16.5L451.57-16.5 451.57 0 445.82 0ZM407.12 0L407.12-26.55 412.82-26.55 412.82 0 407.12 0ZM478.62 0L478.62-15Q478.62-18.15 476.97-19.93 475.32-21.7 472.37-21.7L472.37-21.7Q468.92-21.6 466.94-19.15 464.97-16.7 464.97-13.1L464.97-13.1 463.37-13.1Q463.37-18 464.74-21 466.12-24 468.64-25.38 471.17-26.75 474.62-26.75L474.62-26.75Q477.67-26.75 479.84-25.5 482.02-24.25 483.19-21.98 484.37-19.7 484.37-16.5L484.37-16.5 484.37 0 478.62 0ZM497.97 0L497.97-15Q497.97-18.15 496.29-19.93 494.62-21.7 491.67-21.7L491.67-21.7Q488.27-21.6 486.32-19.15 484.37-16.7 484.37-13.1L484.37-13.1 482.72-13.1Q482.72-18 484.09-21 485.47-24 487.99-25.38 490.52-26.75 493.97-26.75L493.97-26.75Q497.02-26.75 499.19-25.5 501.37-24.25 502.54-21.98 503.72-19.7 503.72-16.5L503.72-16.5 503.72 0 497.97 0ZM459.27 0L459.27-26.55 464.97-26.55 464.97 0 459.27 0ZM516.31-26.55L516.31-11.55Q516.31-8.45 517.96-6.68 519.61-4.9 522.51-4.9L522.51-4.9Q525.96-5 527.89-7.45 529.81-9.9 529.81-13.5L529.81-13.5 531.36-13.5Q531.36-8.6 530.01-5.6 528.66-2.6 526.19-1.23 523.71 0.15 520.31 0.2L520.31 0.2Q517.26 0.2 515.09-1.05 512.91-2.3 511.74-4.6 510.56-6.9 510.56-10.05L510.56-10.05 510.56-26.55 516.31-26.55ZM529.81 0L529.81-26.55 535.56-26.55 535.56 0 529.81 0ZM563.76 0L563.76-15Q563.76-18.1 562.06-19.88 560.36-21.65 557.36-21.65L557.36-21.65Q553.81-21.6 551.79-19.15 549.76-16.7 549.76-13.05L549.76-13.05 548.16-13.05Q548.16-18 549.56-21 550.96-24 553.54-25.38 556.11-26.75 559.61-26.75L559.61-26.75Q562.71-26.75 564.94-25.5 567.16-24.25 568.34-21.98 569.51-19.7 569.51-16.5L569.51-16.5 569.51 0 563.76 0ZM544.06 0L544.06-26.55 549.81-26.55 549.81 0 544.06 0ZM577.21 0L577.21-26.55 582.91-26.55 582.91 0 577.21 0ZM580.06-37.5L580.06-37.5Q581.51-37.5 582.46-36.55 583.41-35.6 583.41-34.15L583.41-34.15Q583.41-32.75 582.46-31.78 581.51-30.8 580.06-30.8L580.06-30.8Q578.66-30.8 577.68-31.78 576.71-32.75 576.71-34.15L576.71-34.15Q576.71-35.6 577.68-36.55 578.66-37.5 580.06-37.5ZM598.15-32.85L598.15-8.4Q598.15-6.25 598.9-5.48 599.65-4.7 601-4.7L601-4.7Q601.9-4.7 602.88-5 603.86-5.3 605-5.9L605-5.9 606.45-1.75Q604.9-0.8 603.25-0.28 601.61 0.25 599.9 0.25L599.9 0.25Q597.9 0.25 596.2-0.53 594.5-1.3 593.48-3 592.45-4.7 592.45-7.4L592.45-7.4 592.45-32.85 598.15-32.85ZM588.7-21.5L588.7-25.6 606-25.6 606-21.5 588.7-21.5ZM611.75 0L611.75-26.55 617.45-26.55 617.45 0 611.75 0ZM614.6-37.5L614.6-37.5Q616.05-37.5 617-36.55 617.95-35.6 617.95-34.15L617.95-34.15Q617.95-32.75 617-31.78 616.05-30.8 614.6-30.8L614.6-30.8Q613.2-30.8 612.23-31.78 611.25-32.75 611.25-34.15L611.25-34.15Q611.25-35.6 612.23-36.55 613.2-37.5 614.6-37.5ZM628.1-15.2L644.35-15.2Q644.25-17.45 643.32-19.03 642.4-20.6 640.75-21.48 639.1-22.35 636.95-22.35L636.95-22.35Q634.55-22.35 632.77-21.25 631-20.15 630-18.18 629-16.2 629-13.55L629-13.55Q629-10.7 630.07-8.6 631.15-6.5 633.07-5.35 635-4.2 637.5-4.2L637.5-4.2Q641.95-4.2 645-7.35L645-7.35 648.05-4.3Q646.1-2.15 643.3-0.98 640.5 0.2 637.05 0.2L637.05 0.2Q632.95 0.2 629.9-1.5 626.85-3.2 625.15-6.23 623.45-9.25 623.45-13.25L623.45-13.25Q623.45-17.25 625.15-20.28 626.85-23.3 629.9-25 632.95-26.7 636.9-26.75L636.9-26.75Q641.6-26.75 644.45-24.83 647.3-22.9 648.5-19.4 649.7-15.9 649.35-11.1L649.35-11.1 628.1-11.1 628.1-15.2ZM672.6-24.15L670.5-20.1Q668.75-21.15 666.67-21.78 664.6-22.4 662.85-22.4L662.85-22.4Q661.15-22.4 660.05-21.75 658.95-21.1 658.95-19.6L658.95-19.6Q658.95-18.35 659.97-17.63 661-16.9 662.6-16.4 664.2-15.9 666-15.35 667.8-14.8 669.42-13.93 671.05-13.05 672.05-11.55 673.05-10.05 673.05-7.6L673.05-7.6Q673.05-4.9 671.62-3.18 670.2-1.45 667.87-0.63 665.55 0.2 662.85 0.2L662.85 0.2Q659.95 0.2 657.05-0.75 654.15-1.7 652.15-3.5L652.15-3.5 654.2-7.4Q655.95-5.85 658.45-4.98 660.95-4.1 663.1-4.1L663.1-4.1Q664.35-4.1 665.32-4.42 666.3-4.75 666.87-5.4 667.45-6.05 667.45-7.1L667.45-7.1Q667.45-8.5 666.45-9.3 665.45-10.1 663.85-10.63 662.25-11.15 660.45-11.68 658.65-12.2 657.07-13.05 655.5-13.9 654.5-15.35 653.5-16.8 653.5-19.2L653.5-19.2Q653.5-21.9 654.9-23.58 656.3-25.25 658.52-26.03 660.75-26.8 663.3-26.8L663.3-26.8Q665.8-26.8 668.3-26.1 670.8-25.4 672.6-24.15L672.6-24.15Z" opacity="1" transform="matrix(1,0,0,1,0,0)" fill="#332885" class="slogan-text-1" data-fill-palette-color="secondary" id="text-1"></path></svg></g></svg></g></svg></g></svg></g><g><svg viewBox="0 0 75.95344239328794 88.05471015134613" height="88.05471015134613" width="75.95344239328794"><g><svg xmlns="http://www.w3.org/2000/svg" xmlns:xlink="http://www.w3.org/1999/xlink" version="1.1" x="0" y="0" viewBox="11.123652946040927 4.9293285894150385 77.75254909025037 90.14045918049575" enable-background="new 0 0 100 100" xml:space="preserve" height="88.05471015134613" width="75.95344239328794" class="icon-icon-0" data-fill-palette-color="accent" id="icon-0"><path fill-rule="evenodd" clip-rule="evenodd" d="M86.669 67.632c-6.314 1.435-5.38 3.629-5.995 5.595-0.709 2.264 0.833 1.641-0.521 4.479-0.554 1.163-1.867 3.604-0.183 5.229 3.372 3.25 4.474-4.257 5.043-5.792C86.349 73.547 90.623 66.732 86.669 67.632L86.669 67.632zM62.95 89.893c-0.004 0.004-0.019 0.005-0.019-0.001 0.001-0.009 0.011-0.02 0.021-0.02C62.957 89.872 62.956 89.888 62.95 89.893L62.95 89.893zM67.186 85.715c-1.879 2.395-3.573 4.971-5.771 7.074-2.173 2.081-9.085 2.945-9.995 1.713-1.777-2.409-0.011-2.554-1.743-5.723-1.333-2.442-1.773-1.326-2.239-4.808-0.787-5.891-2.333-6.199-3.404-10.306-0.068-0.264 0.067-0.558-0.016-0.817-0.625-1.968 1.352-4.452 1.831-6.105 0.652-2.245-0.568-5.388-1.375-7.322-0.234-0.562-0.389-1.155-0.569-1.738-0.956-3.093-4.018-2.657-2.58-6.566 0.317-0.862 0.391-1.828 0.287-2.741-0.171-1.498-0.653-2.084-1.555-2.673-0.511-0.333-1.226-0.152-1.83-0.062-0.429 0.065-0.804 0.698-1.197 0.516-0.438-0.202-0.287-0.941-0.57-1.332-0.325-0.448-0.683-0.978-1.214-1.13-2.222-0.641-2.548-0.441-4.421 0.426-1.91 0.884-2.405 1.006-4.37 0.924-2.097-0.086-2.091 0.375-4.006 0.695-3.057 0.511-5.528-2.514-6.552-4.099-0.493-0.763-1.105-1.456-1.517-2.266-0.814-1.605-0.62-1.707-2.098-2.505-0.34-0.183-0.917-0.233-1.144-1.163-0.139-0.567 0.783-1.111 0.572-1.656-0.692-1.787-0.368-1.471 0.277-2.901 0.127-0.283 0.046-0.624 0.148-0.916 0.958-2.726-0.618-4.022-0.287-5.311 0.521-2.03 3.463-5.976 4.375-7.51 1.031-1.736-0.034-0.805 1.007-1.232 3.417-1.401 1.798-1.7 3.429-4.906 0.756-1.488 1.005-1.054 2.366-2.125 0.973-0.764 0.563-1.973 1.776-2.124 1.907-0.238 0.538 0.602 2.576 0.673 0.617 0.021 1.269 0.222 1.854 0.022 1.729-0.593 3.454-1.889 5.896-1.958 2.374-0.068 5.017-1.532 7.111-0.415 1.272 0.68-0.429 3.45 0.197 4.183 0.955 1.119 2.265 0.757 3.665 1.339 2.104 0.873 0.678 0.78 2.631 1.848 4.799 2.622 2.803-0.609 4.817-1.964 1.86-1.25 2.857 0.426 4.454 1.383 0.169 0.102 0.396 0.023 0.59 0.06 1.685 0.323 2.724 0.693 4.394 0.659 1.929-0.038 1.826-1.23 3.502-0.093 1.338 0.908-0.29 0.882 0.063 2.558 0.352 1.672 3.165 5.246 3.638 7.16 0.095 0.383 0.659 0.444 0.933 0.728 0.229 0.235 2.45 6.084 2.68 6.311 1.584 1.559 0.23 0.209 1.276 2.062 0.692 1.226 0.264 0.64 1.416 1.418 0.938 0.632 0.156-0.19 1.313 0.836 0.445 0.394 0.604 0.645 0.936 1.09 0.841 1.124-0.103 2.351 1.222 3.135 4.466 2.644 6.929-2.238 8.603-0.365 1.346 1.505-2.097 5.77-3.025 7.63-2.225 4.453-7.791 6.048-10.223 11.704-1.848 4.294 1.259 6.479 0.703 8.376-0.039 0.132 0.102 0.295 0.129 0.391 0.114 0.411 0.248 0.817 0.341 1.234 1.277 5.758-2.302 4.714-5.111 7.883-3.272 3.692-1.289 1.757-1.016 5.134 0.077 0.968-0.095 1.502-0.408 1.852l0.001 0.001C69.033 83.172 68.155 84.479 67.186 85.715z" fill="#332885" data-fill-palette-color="accent"></path></svg></g></svg></g></svg></g><defs></defs></svg><rect width="395.52" height="70.64707262631082" fill="none" stroke="none" visibility="hidden"></rect></g></svg></g></svg>