<?xml version="1.0" encoding="iso-8859-1"?>
<!-- Uploaded to: SVG Repo, www.svgrepo.com, Generator: SVG Repo Mixer Tools -->
<svg height="800px" width="800px" version="1.1" id="Capa_1" xmlns="http://www.w3.org/2000/svg" xmlns:xlink="http://www.w3.org/1999/xlink" 
	 viewBox="0 0 495.322 495.322" xml:space="preserve">
<g>
	<g>
		<path style="fill:#010002;" d="M347.392,131.619h-65.093V66.501c0-0.514-0.433-0.944-0.938-0.944
			c-36.938,0-66.967,30.045-66.967,66.96c0,5.941,1.036,11.599,2.518,17.087l38.268-29.761c2.909-2.295,7.562-1.742,9.879,1.213
			c2.427,3.109,1.873,7.562-1.229,9.948l-41.619,32.417c11.176,21.379,33.406,36.079,59.152,36.079
			c36.953,0,66.968-30.006,66.968-66.967C348.33,132.042,347.932,131.619,347.392,131.619z"/>
		<path style="fill:#010002;" d="M348.646,79.473c-0.571-0.663-1.396-1.054-2.271-1.075c-0.922-0.022-1.72,0.33-2.321,0.965
			l-37.784,39.856c-0.852,0.898-1.086,2.217-0.598,3.354c0.488,1.137,1.607,1.874,2.845,1.874h55.092c0.008,0,0.016,0.001,0.02,0
			c1.711,0,3.097-1.387,3.097-3.097c0-0.237-0.026-0.467-0.076-0.688C364.944,105.408,358.724,91.172,348.646,79.473z
			 M315.719,118.253l30.415-32.083c7.336,9.395,12.105,20.369,13.944,32.083H315.719z"/>
		<path style="fill:#010002;" d="M293.701,113.661c0.372,0.148,0.761,0.22,1.146,0.22c0.834,0,1.652-0.337,2.249-0.967
			l36.263-38.267c0.606-0.64,0.911-1.509,0.838-2.387c-0.073-0.879-0.519-1.685-1.223-2.216
			c-11.098-8.362-24.169-13.546-37.8-14.991c-0.869-0.095-1.745,0.19-2.397,0.777s-1.025,1.424-1.025,2.302v52.652
			C291.751,112.053,292.523,113.192,293.701,113.661z M297.944,61.662c10.146,1.596,19.875,5.458,28.476,11.304l-28.476,30.049
			V61.662z"/>
		<path style="fill:#010002;" d="M107.049,68.543c-17.632,0-31.925,14.301-31.926,31.933c0,17.633,14.294,31.926,31.926,31.926
			c17.64,0,31.933-14.293,31.933-31.926C138.982,82.844,124.689,68.543,107.049,68.543z"/>
		<path style="fill:#010002;" d="M477.074,401.089l-22.461-20.663c-3.73,10.44-11.147,26.006-25.809,42.464
			c-12.496,14.047-28.219,26.376-46.719,36.815l23.507,21.615c21.77,20.081,55.499,18.331,75.212-3.764
			C500.502,455.419,498.812,421.105,477.074,401.089z"/>
		<path style="fill:#010002;" d="M419.394,416.07c12.082-13.542,20.618-28.587,25.361-44.646l-19.393-17.871
			c-19.712-18.146-40.221-9.855-60.487,7.523c0,0-0.406,0.307-1.062,0.88c-0.005-0.004-0.01-0.008-0.015-0.012
			c-8.52-6.439-18.252-9.331-28.563-11.502c-8.929-1.881-21.035-3.716-26.809-11.656c-4.557-6.266,0.046-15.016,3.032-20.9
			c1.1-2.167,2.259-4.306,3.418-6.443l67.192,0.021c17.205,0,27.205-12.48,27.205-27.896V27.872C409.335,12.481,397.161,0,382.099,0
			H28.052C12.977,0,0.778,12.481,0.778,27.872V283.54c0,15.429,12.198,27.88,27.274,27.88h135.847c0,0,5.88,55.791-41.206,55.791
			v27.911h41.206h82.297h41.213v-27.911c-48.866,0-41.213-55.791-41.213-55.791l58.298,0.019
			c-5.175,9.625-9.353,19.509-4.946,29.935c4.022,9.518,16.577,13.737,25.673,16.063c11.523,2.944,22.607,4.373,32.518,11.198
			c-1.783,2.311-3.086,4.234-3.086,4.234c-14.246,22.046-23.182,40.255-3.93,57.972l22.414,20.665
			C384.345,445.731,403.197,434.278,419.394,416.07z M70.188,245.251h-8.49v-72.05h8.521L70.188,245.251z M206.879,294.133
			c-9.135,0-16.55-7.554-16.55-16.826c0-9.271,7.416-16.795,16.55-16.795c9.15,0,16.558,7.522,16.558,16.795
			C223.437,286.564,216.028,294.133,206.879,294.133z M145.598,245.251l-0.015-72.38h8.191v22.668c0,0,0,0.077,0,0.107
			c0,17.184,13.629,14.684,18.238,11.37c3.867-2.781,21.724-14.839,21.724-14.839l11.445-7.753c0,0,8.204-5.629,8.237-5.657
			c9.016-6.624,1.873-15.928,1.873-15.928l45.667-35.541c1.027-0.807,1.213-2.28,0.414-3.301c-0.8-1.005-2.271-1.212-3.302-0.415
			l-45.812,35.641l-0.016-0.015c-2.111-1.589-3.417-2.248-5.935-2.348c-3.493-0.153-7.156,1.064-10.876,3.637l-1.712,1.259
			l-14.823,10.232v-4.367c-0.62-33.791-40.623-32.731-40.623-32.731h-16.396l-13.817,23.09l-13.871-23.075h-15.75
			c-39.963,0-40.262,28.817-40.262,39.648h-0.016v70.683h-8.19V29.687h350.198v215.564H145.598z M409.624,409.987
			c-1.615,1.834-3.905,2.753-6.177,2.674c-1.749-0.062-3.477-0.706-4.91-1.954l-32.58-28.666c-3.249-2.88-3.568-7.836-0.688-11.115
			c2.849-3.249,7.805-3.552,11.085-0.688l32.583,28.648C412.183,401.75,412.504,406.723,409.624,409.987z"/>
	</g>
</g>
</svg>