<?xml version="1.0" encoding="iso-8859-1"?>
<!-- Uploaded to: SVG Repo, www.svgrepo.com, Generator: SVG Repo Mixer Tools -->
<svg fill="#000000" height="800px" width="800px" version="1.1" id="Layer_1" xmlns="http://www.w3.org/2000/svg" xmlns:xlink="http://www.w3.org/1999/xlink" 
	 viewBox="0 0 512 512" xml:space="preserve">
<g>
	<g>
		<g>
			<path d="M505.616,238.008c-1.079-1.279-26.946-31.695-70.603-62.481C394.538,146.983,330.624,112.958,256,112.958
				c-74.624,0-138.538,34.025-179.013,62.569c-43.657,30.788-69.523,61.202-70.603,62.482c-8.511,10.09-8.511,25.894,0,35.983
				c1.079,1.279,26.946,31.695,70.603,62.481c40.476,28.544,104.389,62.569,179.013,62.569c74.624,0,138.538-34.025,179.013-62.569
				c43.657-30.788,69.523-61.202,70.602-62.481C514.128,263.903,514.128,248.099,505.616,238.008z M492.965,263.313
				c-0.253,0.299-25.831,30.322-67.865,59.893c-38.44,27.044-98.982,59.282-169.101,59.282c-70.12,0-130.661-32.238-169.101-59.282
				c-42.034-29.571-67.611-59.593-67.863-59.891c-3.288-3.896-3.287-10.733-0.002-14.628c0.254-0.299,25.831-30.322,67.865-59.893
				c38.439-27.044,98.982-59.282,169.101-59.282c70.12,0,130.661,32.238,169.101,59.282c42.034,29.571,67.611,59.593,67.862,59.89
				C496.251,252.582,496.251,259.419,492.965,263.313z"/>
			<path d="M255.997,143.974c-61.771,0-112.025,50.254-112.025,112.026s50.253,112.026,112.025,112.026
				c61.771,0,112.025-50.254,112.025-112.026S317.767,143.974,255.997,143.974z M255.997,351.471
				c-52.642,0-95.47-42.828-95.47-95.471s42.827-95.471,95.47-95.471c25.691,0,49.04,10.203,66.219,26.767
				c-4.909-3.416-10.867-5.424-17.287-5.424c-9.304,0-17.639,4.212-23.21,10.825c-8.13-3.297-16.889-5.024-25.723-5.024
				c-37.676,0-68.327,30.651-68.327,68.327s30.652,68.327,68.327,68.327s68.327-30.651,68.327-68.327
				c0-6.331-0.871-12.535-2.563-18.537c8.144-5.45,13.518-14.728,13.518-25.241c0-5.205-1.318-10.106-3.637-14.392
				c12.423,16.117,19.823,36.294,19.823,58.169C351.466,308.642,308.639,351.471,255.997,351.471z M304.93,242.573
				c0.357,0,0.71-0.015,1.063-0.026c1.171,4.359,1.777,8.861,1.777,13.454c0,28.547-23.225,51.773-51.773,51.773
				c-28.547,0-51.773-23.225-51.773-51.773s23.225-51.773,51.773-51.773c6.486,0,12.919,1.222,18.909,3.567
				c-0.212,1.446-0.327,2.924-0.327,4.429C274.579,228.957,288.194,242.573,304.93,242.573z M304.93,226.018
				c-7.608,0-13.796-6.188-13.796-13.796c0-7.607,6.188-13.796,13.796-13.796s13.796,6.188,13.796,13.796
				C318.725,219.83,312.536,226.018,304.93,226.018z"/>
		</g>
	</g>
</g>
</svg>